<?xml version="1.0" standalone="no"?>
<!DOCTYPE svg PUBLIC "-//W3C//DTD SVG 20010904//EN"
 "http://www.w3.org/TR/2001/REC-SVG-20010904/DTD/svg10.dtd">
<svg version="1.0" xmlns="http://www.w3.org/2000/svg"
 width="1000.000000pt" height="1000.000000pt" viewBox="0 0 1000.000000 1000.000000"
 preserveAspectRatio="xMidYMid meet">
<metadata>
Created by potrace 1.11, written by Peter Selinger 2001-2013
</metadata>
<g transform="translate(0.000000,1000.000000) scale(0.100000,-0.100000)"
fill="#000000" stroke="none">
<path d="M4750 8855 c-288 -166 -875 -506 -940 -543 -25 -14 -142 -81 -260
-150 -118 -69 -236 -137 -262 -151 -26 -14 -102 -58 -170 -97 -135 -79 -495
-287 -543 -314 -16 -9 -160 -93 -320 -185 -159 -92 -311 -179 -336 -194 -25
-14 -111 -64 -192 -111 -81 -47 -157 -90 -169 -97 l-23 -12 0 -1997 c0 -1098
2 -1999 5 -2003 3 -4 320 -189 705 -411 718 -414 1100 -634 1495 -863 124 -71
297 -172 385 -222 88 -51 275 -159 415 -240 140 -81 275 -159 300 -173 25 -13
50 -28 55 -32 6 -3 31 -18 56 -33 50 -28 42 -30 139 25 25 13 131 74 235 135
105 61 204 118 220 127 17 9 44 25 60 35 17 10 122 71 235 136 113 65 306 177
430 248 379 219 484 279 520 300 43 24 567 327 705 407 55 32 296 171 535 309
l435 251 0 2000 0 2000 -210 121 c-115 66 -217 125 -225 130 -20 12 -234 135
-290 167 -25 14 -57 32 -72 41 -47 27 -318 185 -372 215 -28 16 -355 205 -726
419 -371 215 -850 491 -1065 614 -214 124 -406 235 -425 247 -82 51 -61 58
-330 -99z m549 -628 c152 -87 305 -176 341 -197 91 -53 508 -294 550 -317 19
-11 150 -87 290 -168 140 -81 275 -159 300 -173 25 -14 110 -63 190 -110 138
-80 180 -104 260 -150 19 -10 150 -86 290 -167 140 -81 275 -159 300 -173 75
-41 75 -42 28 -70 -24 -13 -56 -32 -73 -42 -16 -9 -97 -56 -180 -104 -82 -47
-157 -91 -165 -96 -8 -5 -28 -17 -45 -26 -16 -9 -217 -125 -445 -257 -228
-132 -435 -251 -460 -265 -25 -14 -139 -80 -255 -147 -284 -164 -945 -546
-970 -559 -11 -6 -31 -18 -45 -27 -14 -9 -67 -39 -118 -68 l-93 -53 -352 202
c-194 111 -364 211 -379 221 -15 11 -29 19 -32 19 -3 0 -29 14 -58 31 -78 46
-826 478 -877 507 -25 14 -68 38 -95 55 -28 16 -64 37 -81 47 -16 9 -88 51
-160 92 -71 42 -146 85 -165 96 -19 11 -91 52 -160 92 -69 40 -145 84 -169 98
-25 14 -68 38 -95 55 -28 16 -76 44 -106 60 -30 17 -79 45 -109 63 l-53 32 23
15 c38 23 749 435 904 522 22 13 81 46 130 75 50 29 106 62 125 72 19 11 139
80 265 153 127 73 249 144 271 157 70 39 448 259 464 269 17 10 571 329 628
360 20 12 45 27 56 34 10 8 25 11 34 8 8 -4 139 -78 291 -166z m-3116 -1659
c53 -32 99 -58 101 -58 2 0 34 -19 72 -41 37 -23 88 -53 113 -67 41 -23 240
-137 876 -505 105 -60 210 -121 235 -135 25 -14 124 -71 220 -127 96 -56 389
-225 650 -375 261 -150 481 -278 488 -284 9 -9 12 -353 10 -1678 l-3 -1666
-200 115 c-110 64 -360 208 -555 321 -195 113 -370 213 -387 223 -18 10 -119
69 -225 130 -228 132 -489 283 -538 311 -109 62 -147 84 -161 93 -9 6 -34 20
-55 32 -22 11 -203 116 -404 232 l-365 211 0 1669 c0 1477 2 1668 15 1663 8
-3 59 -32 113 -64z m5762 -1603 l0 -1665 -145 -84 c-186 -107 -2113 -1220
-2243 -1295 -54 -31 -112 -64 -129 -74 -18 -10 -95 -55 -172 -99 -78 -44 -156
-89 -173 -100 l-33 -20 0 1676 c0 1162 3 1676 10 1676 6 0 36 16 66 35 30 19
56 35 59 35 2 0 28 14 57 31 29 18 67 40 85 50 34 19 734 423 1313 757 195
113 436 252 535 310 99 58 200 116 225 130 25 14 59 34 75 44 17 10 37 21 45
25 8 4 86 49 173 100 88 51 161 93 164 93 2 0 20 11 40 25 20 13 39 22 42 19
3 -3 6 -754 6 -1669z"/>
</g>
</svg>
